SplineFontDB: 3.2
FontName: SixPixelsFont
FullName: Six Pixels Font
FamilyName: SixPixelsFont
Weight: Medium
Copyright: (c) - 2024 Mounir Tohami (Whales State) https://mounirtohami.itch.io
Version: 001.000
ItalicAngle: 0
UnderlinePosition: 0
UnderlineWidth: 0
Ascent: 1000
Descent: 0
InvalidEm: 0
sfntRevision: 0x00010000
LayerCount: 2
Layer: 0 1 "Back" 1
Layer: 1 1 "Fore" 0
XUID: [1021 465 1097079576 44]
StyleMap: 0x0040
FSType: 0
OS2Version: 1
OS2_WeightWidthSlopeOnly: 0
OS2_UseTypoMetrics: 0
CreationTime: 1280473793
ModificationTime: 1710296736
PfmFamily: 17
TTFWeight: 500
TTFWidth: 5
LineGap: 333
VLineGap: 0
Panose: 2 0 6 3 0 0 0 0 0 0
OS2TypoAscent: 1000
OS2TypoAOffset: 0
OS2TypoDescent: 0
OS2TypoDOffset: 0
OS2TypoLinegap: 333
OS2WinAscent: 1000
OS2WinAOffset: 0
OS2WinDescent: 333
OS2WinDOffset: 0
HheadAscent: 1000
HheadAOffset: 0
HheadDescent: 0
HheadDOffset: 0
OS2SubXSize: 667
OS2SubYSize: 667
OS2SubXOff: 0
OS2SubYOff: 167
OS2SupXSize: 667
OS2SupYSize: 667
OS2SupXOff: 0
OS2SupYOff: 500
OS2StrikeYSize: 0
OS2StrikeYPos: 333
OS2Vendor: '2ttf'
OS2CodePages: 00000001.00000000
OS2UnicodeRanges: 00000003.00000000.00000000.00000000
MarkAttachClasses: 1
DEI: 91125
ShortTable: cvt  2
  34
  648
EndShort
ShortTable: maxp 16
  1
  0
  99
  45
  10
  0
  0
  2
  0
  1
  1
  0
  64
  46
  0
  0
EndShort
LangName: 1033 "" "" "" "MounirTohami:SixPixelsFont" "" "Version 001.000" "" "" "" "Mounir Tohami" "" "https://mounirtohami.itch.io/six-pixels-font" "https://mounirtohami.itch.io" "SIL Open Font License (OFL)" "https://openfontlicense.org/"
GaspTable: 1 65535 0 0
Encoding: UnicodeBmp
UnicodeInterp: none
NameList: AGL For New Fonts
DisplaySize: -36
AntiAlias: 1
FitToEm: 0
WinInfo: 51 51 17
BeginPrivate: 0
EndPrivate
BeginChars: 65539 99

StartChar: .notdef
Encoding: 65536 -1 0
Width: 833
GlyphClass: 1
Flags: W
LayerCount: 2
Fore
SplineSet
89 0 m 1,0,-1
 89 1778 l 1,1,-1
 798 1778 l 1,2,-1
 798 0 l 1,3,-1
 89 0 l 1,0,-1
178 89 m 1,4,-1
 709 89 l 1,5,-1
 709 1689 l 1,6,-1
 178 1689 l 1,7,-1
 178 89 l 1,4,-1
EndSplineSet
EndChar

StartChar: exclam
Encoding: 33 33 4
Width: 333
GlyphClass: 2
Flags: W
LayerCount: 2
Fore
SplineSet
0 0 m 1,0,-1
 0 167 l 1,1,-1
 167 167 l 1,2,-1
 167 0 l 1,3,-1
 0 0 l 1,0,-1
0 334 m 1,4,5
 0 334 0 334 0 1001 c 1,6,-1
 167 1001 l 1,7,-1
 167 334 l 1,8,-1
 0 334 l 1,4,5
EndSplineSet
EndChar

StartChar: quotedbl
Encoding: 34 34 5
Width: 666
GlyphClass: 2
Flags: W
LayerCount: 2
Fore
SplineSet
334 668 m 1,0,1
 334 668 334 668 334 1001 c 1,2,-1
 501 1001 l 1,3,-1
 501 668 l 1,4,-1
 334 668 l 1,0,1
0 668 m 1,5,6
 0 668 0 668 0 1001 c 1,7,-1
 167 1001 l 1,8,9
 167 1001 167 1001 167 668 c 1,10,-1
 0 668 l 1,5,6
EndSplineSet
EndChar

StartChar: numbersign
Encoding: 35 35 6
Width: 1000
GlyphClass: 2
Flags: W
LayerCount: 2
Fore
SplineSet
501 0 m 1,0,-1
 501 167 l 1,1,-1
 334 167 l 1,2,-1
 334 0 l 1,3,-1
 167 0 l 1,4,-1
 167 167 l 1,5,-1
 0 167 l 1,6,-1
 0 334 l 1,7,-1
 167 334 l 1,8,9
 167 334 167 334 167 668 c 1,10,-1
 0 668 l 1,11,-1
 0 834 l 1,12,-1
 167 834 l 1,13,-1
 167 1001 l 1,14,-1
 334 1001 l 1,15,-1
 334 834 l 1,16,-1
 501 834 l 1,17,-1
 501 1001 l 1,18,-1
 668 1001 l 1,19,-1
 668 834 l 1,20,-1
 834 834 l 1,21,-1
 834 668 l 1,22,-1
 668 668 l 1,23,-1
 668 334 l 1,24,-1
 834 334 l 1,25,-1
 834 167 l 1,26,-1
 668 167 l 1,27,-1
 668 0 l 1,28,-1
 501 0 l 1,0,-1
501 334 m 1,29,30
 501 334 501 334 501 668 c 1,31,-1
 334 668 l 1,32,33
 334 668 334 668 334 334 c 1,34,-1
 501 334 l 1,29,30
EndSplineSet
EndChar

StartChar: dollar
Encoding: 36 36 7
Width: 833
GlyphClass: 2
Flags: W
LayerCount: 2
Fore
SplineSet
501 167 m 1,0,-1
 501 0 l 1,1,2
 501 0 501 0 0 0 c 1,3,-1
 0 167 l 1,4,-1
 501 167 l 1,0,-1
501 167 m 1,5,-1
 501 334 l 1,6,-1
 668 334 l 1,7,-1
 668 167 l 1,8,-1
 501 167 l 1,5,-1
501 334 m 1,9,10
 501 334 501 334 167 334 c 1,11,-1
 167 501 l 1,12,13
 167 501 167 501 501 501 c 1,14,-1
 501 334 l 1,9,10
167 501 m 1,15,-1
 0 501 l 1,16,-1
 0 668 l 1,17,-1
 167 668 l 1,18,-1
 167 501 l 1,15,-1
167 668 m 1,19,-1
 167 834 l 1,20,-1
 334 834 l 1,21,-1
 334 1001 l 1,22,-1
 501 1001 l 1,23,-1
 501 834 l 1,24,-1
 668 834 l 1,25,-1
 668 668 l 1,26,27
 668 668 668 668 167 668 c 1,19,-1
EndSplineSet
EndChar

StartChar: percent
Encoding: 37 37 8
Width: 1000
GlyphClass: 2
Flags: W
LayerCount: 2
Fore
SplineSet
668 0 m 1,0,-1
 668 167 l 1,1,-1
 834 167 l 1,2,-1
 834 0 l 1,3,-1
 668 0 l 1,0,-1
167 0 m 1,4,5
 167 0 167 0 167 334 c 1,6,-1
 334 334 l 1,7,-1
 334 0 l 1,8,-1
 167 0 l 1,4,5
0 834 m 1,9,-1
 0 1001 l 1,10,-1
 167 1001 l 1,11,-1
 167 834 l 1,12,-1
 0 834 l 1,9,-1
334 334 m 1,13,14
 334 334 334 334 334 668 c 1,15,-1
 501 668 l 1,16,17
 501 668 501 668 501 334 c 1,18,-1
 334 334 l 1,13,14
501 668 m 1,19,20
 501 668 501 668 501 1001 c 1,21,-1
 668 1001 l 1,22,23
 668 1001 668 1001 668 668 c 1,24,-1
 501 668 l 1,19,20
EndSplineSet
EndChar

StartChar: ampersand
Encoding: 38 38 9
Width: 1000
GlyphClass: 2
Flags: W
LayerCount: 2
Fore
SplineSet
668 0 m 1,0,-1
 668 167 l 1,1,-1
 834 167 l 1,2,-1
 834 0 l 1,3,-1
 668 0 l 1,0,-1
501 167 m 1,4,-1
 501 0 l 1,5,6
 501 0 501 0 167 0 c 1,7,-1
 167 167 l 1,8,-1
 501 167 l 1,4,-1
501 167 m 1,9,-1
 501 334 l 1,10,-1
 668 334 l 1,11,-1
 668 167 l 1,12,-1
 501 167 l 1,9,-1
167 167 m 1,13,-1
 0 167 l 1,14,15
 0 167 0 167 0 501 c 1,16,-1
 167 501 l 1,17,18
 167 501 167 501 167 167 c 1,13,-1
668 334 m 1,19,20
 668 334 668 334 668 668 c 1,21,-1
 834 668 l 1,22,23
 834 668 834 668 834 334 c 1,24,-1
 668 334 l 1,19,20
501 334 m 1,25,-1
 334 334 l 1,26,-1
 334 501 l 1,27,-1
 501 501 l 1,28,-1
 501 334 l 1,25,-1
167 501 m 1,29,-1
 167 668 l 1,30,-1
 334 668 l 1,31,-1
 334 501 l 1,32,-1
 167 501 l 1,29,-1
334 668 m 1,33,-1
 334 834 l 1,34,-1
 501 834 l 1,35,-1
 501 668 l 1,36,-1
 334 668 l 1,33,-1
167 668 m 1,37,-1
 0 668 l 1,38,-1
 0 834 l 1,39,-1
 167 834 l 1,40,-1
 167 668 l 1,37,-1
167 834 m 1,41,-1
 167 1001 l 1,42,-1
 334 1001 l 1,43,-1
 334 834 l 1,44,-1
 167 834 l 1,41,-1
EndSplineSet
EndChar

StartChar: quotesingle
Encoding: 39 39 10
Width: 333
GlyphClass: 2
Flags: W
LayerCount: 2
Fore
SplineSet
0 668 m 1,0,1
 0 668 0 668 0 1001 c 1,2,-1
 167 1001 l 1,3,-1
 167 668 l 1,4,-1
 0 668 l 1,0,1
EndSplineSet
EndChar

StartChar: parenleft
Encoding: 40 40 11
Width: 500
GlyphClass: 2
Flags: W
LayerCount: 2
Fore
SplineSet
167 0 m 1,0,-1
 167 167 l 1,1,-1
 334 167 l 1,2,-1
 334 0 l 1,3,-1
 167 0 l 1,0,-1
167 167 m 1,4,-1
 0 167 l 1,5,6
 0 167 0 167 0 834 c 1,7,-1
 167 834 l 1,8,-1
 167 167 l 1,4,-1
167 834 m 1,9,-1
 167 1001 l 1,10,-1
 334 1001 l 1,11,-1
 334 834 l 1,12,-1
 167 834 l 1,9,-1
EndSplineSet
EndChar

StartChar: parenright
Encoding: 41 41 12
Width: 500
GlyphClass: 2
Flags: W
LayerCount: 2
Fore
SplineSet
0 0 m 1,0,-1
 0 167 l 1,1,-1
 167 167 l 1,2,-1
 167 0 l 1,3,-1
 0 0 l 1,0,-1
167 167 m 1,4,5
 167 167 167 167 167 834 c 1,6,-1
 334 834 l 1,7,-1
 334 167 l 1,8,-1
 167 167 l 1,4,5
167 834 m 1,9,-1
 0 834 l 1,10,-1
 0 1001 l 1,11,-1
 167 1001 l 1,12,-1
 167 834 l 1,9,-1
EndSplineSet
EndChar

StartChar: asterisk
Encoding: 42 42 13
Width: 666
GlyphClass: 2
Flags: W
LayerCount: 2
Fore
SplineSet
334 501 m 1,0,-1
 334 668 l 1,1,-1
 501 668 l 1,2,-1
 501 501 l 1,3,-1
 334 501 l 1,0,-1
0 501 m 1,4,-1
 0 668 l 1,5,-1
 167 668 l 1,6,-1
 167 501 l 1,7,-1
 0 501 l 1,4,-1
167 668 m 1,8,-1
 167 834 l 1,9,-1
 334 834 l 1,10,-1
 334 668 l 1,11,-1
 167 668 l 1,8,-1
334 834 m 1,12,-1
 334 1001 l 1,13,-1
 501 1001 l 1,14,-1
 501 834 l 1,15,-1
 334 834 l 1,12,-1
167 834 m 1,16,-1
 0 834 l 1,17,-1
 0 1001 l 1,18,-1
 167 1001 l 1,19,-1
 167 834 l 1,16,-1
EndSplineSet
EndChar

StartChar: plus
Encoding: 43 43 14
Width: 1000
GlyphClass: 2
Flags: W
LayerCount: 2
Fore
SplineSet
334 0 m 1,0,1
 334 0 334 0 334 334 c 1,2,3
 334 334 334 334 0 334 c 1,4,-1
 0 501 l 1,5,6
 0 501 0 501 334 501 c 1,7,8
 334 501 334 501 334 834 c 1,9,-1
 501 834 l 1,10,11
 501 834 501 834 501 501 c 1,12,13
 501 501 501 501 834 501 c 1,14,-1
 834 334 l 1,15,16
 834 334 834 334 501 334 c 1,17,-1
 501 0 l 1,18,-1
 334 0 l 1,0,1
EndSplineSet
EndChar

StartChar: comma
Encoding: 44 44 15
Width: 500
GlyphClass: 2
Flags: W
LayerCount: 2
Fore
SplineSet
0 0 m 1,0,-1
 0 167 l 1,1,-1
 167 167 l 1,2,-1
 167 0 l 1,3,-1
 0 0 l 1,0,-1
167 167 m 1,4,-1
 167 334 l 1,5,-1
 334 334 l 1,6,-1
 334 167 l 1,7,-1
 167 167 l 1,4,-1
EndSplineSet
EndChar

StartChar: hyphen
Encoding: 45 45 16
Width: 666
GlyphClass: 2
Flags: W
LayerCount: 2
Fore
SplineSet
501 501 m 1,0,-1
 501 334 l 1,1,2
 501 334 501 334 0 334 c 1,3,-1
 0 501 l 1,4,-1
 501 501 l 1,0,-1
EndSplineSet
EndChar

StartChar: period
Encoding: 46 46 17
Width: 333
GlyphClass: 2
Flags: W
LayerCount: 2
Fore
SplineSet
0 0 m 1,0,-1
 0 167 l 1,1,-1
 167 167 l 1,2,-1
 167 0 l 1,3,-1
 0 0 l 1,0,-1
EndSplineSet
EndChar

StartChar: slash
Encoding: 47 47 18
Width: 666
GlyphClass: 2
Flags: W
LayerCount: 2
Fore
SplineSet
0 0 m 1,0,1
 0 0 0 0 0 334 c 1,2,-1
 167 334 l 1,3,-1
 167 0 l 1,4,-1
 0 0 l 1,0,1
167 334 m 1,5,6
 167 334 167 334 167 668 c 1,7,-1
 334 668 l 1,8,9
 334 668 334 668 334 334 c 1,10,-1
 167 334 l 1,5,6
334 668 m 1,11,12
 334 668 334 668 334 1001 c 1,13,-1
 501 1001 l 1,14,15
 501 1001 501 1001 501 668 c 1,16,-1
 334 668 l 1,11,12
EndSplineSet
EndChar

StartChar: zero
Encoding: 48 48 19
Width: 833
GlyphClass: 2
Flags: W
LayerCount: 2
Fore
SplineSet
501 167 m 1,0,-1
 501 0 l 1,1,2
 501 0 501 0 167 0 c 1,3,-1
 167 167 l 1,4,-1
 501 167 l 1,0,-1
501 167 m 1,5,6
 501 167 501 167 501 501 c 1,7,-1
 334 501 l 1,8,-1
 334 334 l 1,9,-1
 167 334 l 1,10,-1
 167 167 l 1,11,-1
 0 167 l 1,12,13
 0 167 0 167 0 834 c 1,14,-1
 167 834 l 1,15,16
 167 834 167 834 167 501 c 1,17,-1
 334 501 l 1,18,-1
 334 668 l 1,19,-1
 501 668 l 1,20,-1
 501 834 l 1,21,-1
 668 834 l 1,22,23
 668 834 668 834 668 167 c 1,24,-1
 501 167 l 1,5,6
501 834 m 1,25,26
 501 834 501 834 167 834 c 1,27,-1
 167 1001 l 1,28,29
 167 1001 167 1001 501 1001 c 1,30,-1
 501 834 l 1,25,26
EndSplineSet
EndChar

StartChar: one
Encoding: 49 49 20
Width: 666
GlyphClass: 2
Flags: W
LayerCount: 2
Fore
SplineSet
0 0 m 1,0,-1
 0 167 l 1,1,-1
 167 167 l 1,2,3
 167 167 167 167 167 668 c 1,4,-1
 0 668 l 1,5,-1
 0 834 l 1,6,-1
 167 834 l 1,7,-1
 167 1001 l 1,8,-1
 334 1001 l 1,9,10
 334 1001 334 1001 334 167 c 1,11,-1
 501 167 l 1,12,-1
 501 0 l 1,13,-1
 0 0 l 1,0,-1
EndSplineSet
EndChar

StartChar: two
Encoding: 50 50 21
Width: 833
GlyphClass: 2
Flags: W
LayerCount: 2
Fore
SplineSet
0 668 m 1,0,-1
 0 834 l 1,1,-1
 167 834 l 1,2,-1
 167 668 l 1,3,-1
 0 668 l 1,0,-1
668 167 m 1,4,-1
 668 0 l 1,5,6
 668 0 668 0 0 0 c 1,7,-1
 0 167 l 1,8,-1
 167 167 l 1,9,-1
 167 334 l 1,10,-1
 334 334 l 1,11,-1
 334 167 l 1,12,-1
 668 167 l 1,4,-1
334 334 m 1,13,-1
 334 501 l 1,14,-1
 501 501 l 1,15,-1
 501 334 l 1,16,-1
 334 334 l 1,13,-1
501 501 m 1,17,18
 501 501 501 501 501 834 c 1,19,-1
 668 834 l 1,20,21
 668 834 668 834 668 501 c 1,22,-1
 501 501 l 1,17,18
501 834 m 1,23,24
 501 834 501 834 167 834 c 1,25,-1
 167 1001 l 1,26,27
 167 1001 167 1001 501 1001 c 1,28,-1
 501 834 l 1,23,24
EndSplineSet
EndChar

StartChar: three
Encoding: 51 51 22
Width: 833
GlyphClass: 2
Flags: W
LayerCount: 2
Fore
SplineSet
0 668 m 1,0,-1
 0 834 l 1,1,-1
 167 834 l 1,2,-1
 167 668 l 1,3,-1
 0 668 l 1,0,-1
501 167 m 1,4,-1
 501 0 l 1,5,6
 501 0 501 0 167 0 c 1,7,-1
 167 167 l 1,8,-1
 501 167 l 1,4,-1
501 167 m 1,9,10
 501 167 501 167 501 501 c 1,11,-1
 668 501 l 1,12,13
 668 501 668 501 668 167 c 1,14,-1
 501 167 l 1,9,10
167 167 m 1,15,-1
 0 167 l 1,16,-1
 0 334 l 1,17,-1
 167 334 l 1,18,-1
 167 167 l 1,15,-1
501 501 m 1,19,-1
 334 501 l 1,20,-1
 334 668 l 1,21,-1
 501 668 l 1,22,-1
 501 501 l 1,19,-1
501 668 m 1,23,-1
 501 834 l 1,24,-1
 668 834 l 1,25,-1
 668 668 l 1,26,-1
 501 668 l 1,23,-1
501 834 m 1,27,28
 501 834 501 834 167 834 c 1,29,-1
 167 1001 l 1,30,31
 167 1001 167 1001 501 1001 c 1,32,-1
 501 834 l 1,27,28
EndSplineSet
EndChar

StartChar: four
Encoding: 52 52 23
Width: 833
GlyphClass: 2
Flags: W
LayerCount: 2
Fore
SplineSet
501 0 m 1,0,1
 501 0 501 0 501 334 c 1,2,3
 501 334 501 334 0 334 c 1,4,-1
 0 1001 l 1,5,-1
 167 1001 l 1,6,7
 167 1001 167 1001 167 501 c 1,8,9
 167 501 167 501 501 501 c 1,10,11
 501 501 501 501 501 1001 c 1,12,-1
 668 1001 l 1,13,-1
 668 0 l 1,14,-1
 501 0 l 1,0,1
EndSplineSet
EndChar

StartChar: five
Encoding: 53 53 24
Width: 833
GlyphClass: 2
Flags: W
LayerCount: 2
Fore
SplineSet
501 167 m 1,0,-1
 501 0 l 1,1,2
 501 0 501 0 0 0 c 1,3,-1
 0 167 l 1,4,-1
 501 167 l 1,0,-1
501 167 m 1,5,6
 501 167 501 167 501 501 c 1,7,-1
 668 501 l 1,8,9
 668 501 668 501 668 167 c 1,10,-1
 501 167 l 1,5,6
501 501 m 1,11,12
 501 501 501 501 0 501 c 1,13,14
 0 501 0 501 0 1001 c 1,15,16
 0 1001 0 1001 668 1001 c 1,17,-1
 668 834 l 1,18,19
 668 834 668 834 167 834 c 1,20,-1
 167 668 l 1,21,22
 167 668 167 668 501 668 c 1,23,-1
 501 501 l 1,11,12
EndSplineSet
EndChar

StartChar: six
Encoding: 54 54 25
Width: 833
GlyphClass: 2
Flags: W
LayerCount: 2
Fore
SplineSet
501 167 m 1,0,-1
 501 0 l 1,1,2
 501 0 501 0 167 0 c 1,3,-1
 167 167 l 1,4,-1
 501 167 l 1,0,-1
501 167 m 1,5,6
 501 167 501 167 501 501 c 1,7,-1
 668 501 l 1,8,9
 668 501 668 501 668 167 c 1,10,-1
 501 167 l 1,5,6
167 167 m 1,11,-1
 0 167 l 1,12,13
 0 167 0 167 0 834 c 1,14,-1
 167 834 l 1,15,-1
 167 668 l 1,16,17
 167 668 167 668 501 668 c 1,18,-1
 501 501 l 1,19,20
 501 501 501 501 167 501 c 1,21,22
 167 501 167 501 167 167 c 1,11,-1
668 1001 m 1,23,-1
 668 834 l 1,24,25
 668 834 668 834 167 834 c 1,26,-1
 167 1001 l 1,27,28
 167 1001 167 1001 668 1001 c 1,23,-1
EndSplineSet
EndChar

StartChar: seven
Encoding: 55 55 26
Width: 833
GlyphClass: 2
Flags: W
LayerCount: 2
Fore
SplineSet
167 0 m 1,0,1
 167 0 167 0 167 334 c 1,2,-1
 334 334 l 1,3,-1
 334 0 l 1,4,-1
 167 0 l 1,0,1
334 334 m 1,5,6
 334 334 334 334 334 668 c 1,7,-1
 501 668 l 1,8,9
 501 668 501 668 501 334 c 1,10,-1
 334 334 l 1,5,6
501 668 m 1,11,-1
 501 834 l 1,12,13
 501 834 501 834 0 834 c 1,14,-1
 0 1001 l 1,15,16
 0 1001 0 1001 668 1001 c 1,17,18
 668 1001 668 1001 668 668 c 1,19,-1
 501 668 l 1,11,-1
EndSplineSet
EndChar

StartChar: eight
Encoding: 56 56 27
Width: 833
GlyphClass: 2
Flags: W
LayerCount: 2
Fore
SplineSet
501 167 m 1,0,-1
 501 0 l 1,1,2
 501 0 501 0 167 0 c 1,3,-1
 167 167 l 1,4,-1
 501 167 l 1,0,-1
501 167 m 1,5,6
 501 167 501 167 501 501 c 1,7,-1
 668 501 l 1,8,9
 668 501 668 501 668 167 c 1,10,-1
 501 167 l 1,5,6
167 167 m 1,11,-1
 0 167 l 1,12,13
 0 167 0 167 0 501 c 1,14,-1
 167 501 l 1,15,16
 167 501 167 501 167 167 c 1,11,-1
501 501 m 1,17,18
 501 501 501 501 167 501 c 1,19,-1
 167 668 l 1,20,21
 167 668 167 668 501 668 c 1,22,-1
 501 501 l 1,17,18
501 668 m 1,23,-1
 501 834 l 1,24,-1
 668 834 l 1,25,-1
 668 668 l 1,26,-1
 501 668 l 1,23,-1
167 668 m 1,27,-1
 0 668 l 1,28,-1
 0 834 l 1,29,-1
 167 834 l 1,30,-1
 167 668 l 1,27,-1
501 834 m 1,31,32
 501 834 501 834 167 834 c 1,33,-1
 167 1001 l 1,34,35
 167 1001 167 1001 501 1001 c 1,36,-1
 501 834 l 1,31,32
EndSplineSet
EndChar

StartChar: nine
Encoding: 57 57 28
Width: 833
GlyphClass: 2
Flags: W
LayerCount: 2
Fore
SplineSet
501 167 m 1,0,-1
 501 0 l 1,1,2
 501 0 501 0 0 0 c 1,3,-1
 0 167 l 1,4,-1
 501 167 l 1,0,-1
501 167 m 1,5,-1
 501 334 l 1,6,7
 501 334 501 334 167 334 c 1,8,-1
 167 501 l 1,9,10
 167 501 167 501 501 501 c 1,11,12
 501 501 501 501 501 834 c 1,13,-1
 668 834 l 1,14,15
 668 834 668 834 668 167 c 1,16,-1
 501 167 l 1,5,-1
167 501 m 1,17,-1
 0 501 l 1,18,19
 0 501 0 501 0 834 c 1,20,-1
 167 834 l 1,21,22
 167 834 167 834 167 501 c 1,17,-1
501 834 m 1,23,24
 501 834 501 834 167 834 c 1,25,-1
 167 1001 l 1,26,27
 167 1001 167 1001 501 1001 c 1,28,-1
 501 834 l 1,23,24
EndSplineSet
EndChar

StartChar: colon
Encoding: 58 58 29
Width: 333
GlyphClass: 2
Flags: W
LayerCount: 2
Fore
SplineSet
0 0 m 1,0,-1
 0 167 l 1,1,-1
 167 167 l 1,2,-1
 167 0 l 1,3,-1
 0 0 l 1,0,-1
0 668 m 1,4,-1
 0 834 l 1,5,-1
 167 834 l 1,6,-1
 167 668 l 1,7,-1
 0 668 l 1,4,-1
EndSplineSet
EndChar

StartChar: semicolon
Encoding: 59 59 30
Width: 333
GlyphClass: 2
Flags: W
LayerCount: 2
Fore
SplineSet
0 0 m 1,0,1
 0 0 0 0 0 334 c 1,2,-1
 167 334 l 1,3,-1
 167 0 l 1,4,-1
 0 0 l 1,0,1
0 668 m 1,5,-1
 0 834 l 1,6,-1
 167 834 l 1,7,-1
 167 668 l 1,8,-1
 0 668 l 1,5,-1
EndSplineSet
EndChar

StartChar: less
Encoding: 60 60 31
Width: 666
GlyphClass: 2
Flags: W
LayerCount: 2
Fore
SplineSet
334 0 m 1,0,-1
 334 167 l 1,1,-1
 501 167 l 1,2,-1
 501 0 l 1,3,-1
 334 0 l 1,0,-1
334 167 m 1,4,-1
 167 167 l 1,5,-1
 167 334 l 1,6,-1
 334 334 l 1,7,-1
 334 167 l 1,4,-1
167 334 m 1,8,-1
 0 334 l 1,9,-1
 0 501 l 1,10,-1
 167 501 l 1,11,-1
 167 334 l 1,8,-1
167 501 m 1,12,-1
 167 668 l 1,13,-1
 334 668 l 1,14,-1
 334 501 l 1,15,-1
 167 501 l 1,12,-1
334 668 m 1,16,-1
 334 834 l 1,17,-1
 501 834 l 1,18,-1
 501 668 l 1,19,-1
 334 668 l 1,16,-1
EndSplineSet
EndChar

StartChar: equal
Encoding: 61 61 32
Width: 666
GlyphClass: 2
Flags: W
LayerCount: 2
Fore
SplineSet
501 334 m 1,0,-1
 501 167 l 1,1,2
 501 167 501 167 0 167 c 1,3,-1
 0 334 l 1,4,-1
 501 334 l 1,0,-1
501 668 m 1,5,-1
 501 501 l 1,6,7
 501 501 501 501 0 501 c 1,8,-1
 0 668 l 1,9,10
 0 668 0 668 501 668 c 1,5,-1
EndSplineSet
EndChar

StartChar: greater
Encoding: 62 62 33
Width: 666
GlyphClass: 2
Flags: W
LayerCount: 2
Fore
SplineSet
0 0 m 1,0,-1
 0 167 l 1,1,-1
 167 167 l 1,2,-1
 167 0 l 1,3,-1
 0 0 l 1,0,-1
167 167 m 1,4,-1
 167 334 l 1,5,-1
 334 334 l 1,6,-1
 334 167 l 1,7,-1
 167 167 l 1,4,-1
334 334 m 1,8,-1
 334 501 l 1,9,-1
 501 501 l 1,10,-1
 501 334 l 1,11,-1
 334 334 l 1,8,-1
334 501 m 1,12,-1
 167 501 l 1,13,-1
 167 668 l 1,14,-1
 334 668 l 1,15,-1
 334 501 l 1,12,-1
167 668 m 1,16,-1
 0 668 l 1,17,-1
 0 834 l 1,18,-1
 167 834 l 1,19,-1
 167 668 l 1,16,-1
EndSplineSet
EndChar

StartChar: question
Encoding: 63 63 34
Width: 833
GlyphClass: 2
Flags: W
LayerCount: 2
Fore
SplineSet
167 0 m 1,0,-1
 167 167 l 1,1,-1
 334 167 l 1,2,-1
 334 0 l 1,3,-1
 167 0 l 1,0,-1
167 334 m 1,4,-1
 167 501 l 1,5,-1
 334 501 l 1,6,-1
 334 334 l 1,7,-1
 167 334 l 1,4,-1
334 501 m 1,8,-1
 334 668 l 1,9,-1
 501 668 l 1,10,-1
 501 501 l 1,11,-1
 334 501 l 1,8,-1
501 668 m 1,12,-1
 501 834 l 1,13,-1
 668 834 l 1,14,-1
 668 668 l 1,15,-1
 501 668 l 1,12,-1
501 834 m 1,16,17
 501 834 501 834 0 834 c 1,18,-1
 0 1001 l 1,19,-1
 501 1001 l 1,20,-1
 501 834 l 1,16,17
EndSplineSet
EndChar

StartChar: at
Encoding: 64 64 35
Width: 1166
GlyphClass: 2
Flags: W
LayerCount: 2
Fore
SplineSet
1001 167 m 1,0,-1
 1001 0 l 1,1,2
 1001 0 1001 0 167 0 c 1,3,-1
 167 167 l 1,4,-1
 1001 167 l 1,0,-1
167 167 m 1,5,-1
 0 167 l 1,6,7
 0 167 0 167 0 834 c 1,8,-1
 167 834 l 1,9,10
 167 834 167 834 167 167 c 1,5,-1
334 334 m 1,11,12
 334 334 334 334 334 668 c 1,13,14
 334 668 334 668 668 668 c 1,15,-1
 668 501 l 1,16,-1
 834 501 l 1,17,18
 834 501 834 501 834 834 c 1,19,-1
 1001 834 l 1,20,21
 1001 834 1001 834 1001 334 c 1,22,23
 1001 334 1001 334 334 334 c 1,11,12
834 834 m 1,24,25
 834 834 834 834 167 834 c 1,26,-1
 167 1001 l 1,27,28
 167 1001 167 1001 834 1001 c 1,29,-1
 834 834 l 1,24,25
EndSplineSet
EndChar

StartChar: A
Encoding: 65 65 36
Width: 833
GlyphClass: 2
Flags: W
LayerCount: 2
Fore
SplineSet
501 0 m 1,0,1
 501 0 501 0 501 334 c 1,2,3
 501 334 501 334 167 334 c 1,4,5
 167 334 167 334 167 0 c 1,6,-1
 0 0 l 1,7,8
 0 0 0 0 0 834 c 1,9,-1
 167 834 l 1,10,11
 167 834 167 834 167 501 c 1,12,13
 167 501 167 501 501 501 c 1,14,15
 501 501 501 501 501 834 c 1,16,-1
 668 834 l 1,17,-1
 668 0 l 1,18,-1
 501 0 l 1,0,1
501 834 m 1,19,20
 501 834 501 834 167 834 c 1,21,-1
 167 1001 l 1,22,23
 167 1001 167 1001 501 1001 c 1,24,-1
 501 834 l 1,19,20
EndSplineSet
EndChar

StartChar: B
Encoding: 66 66 37
Width: 833
GlyphClass: 2
Flags: W
LayerCount: 2
Fore
SplineSet
501 167 m 1,0,1
 501 167 501 167 501 501 c 1,2,3
 501 501 501 501 167 501 c 1,4,5
 167 501 167 501 167 167 c 1,6,-1
 501 167 l 1,0,1
0 0 m 1,7,8
 0 0 0 0 0 1001 c 1,9,10
 0 1001 0 1001 501 1001 c 1,11,-1
 501 834 l 1,12,-1
 668 834 l 1,13,-1
 668 668 l 1,14,-1
 501 668 l 1,15,-1
 501 834 l 1,16,17
 501 834 501 834 167 834 c 1,18,-1
 167 668 l 1,19,20
 167 668 167 668 501 668 c 1,21,-1
 501 501 l 1,22,-1
 668 501 l 1,23,24
 668 501 668 501 668 167 c 1,25,-1
 501 167 l 1,26,-1
 501 0 l 1,27,28
 501 0 501 0 0 0 c 1,7,8
EndSplineSet
EndChar

StartChar: C
Encoding: 67 67 38
Width: 833
GlyphClass: 2
Flags: W
LayerCount: 2
Fore
SplineSet
501 668 m 1,0,-1
 501 834 l 1,1,-1
 668 834 l 1,2,-1
 668 668 l 1,3,-1
 501 668 l 1,0,-1
501 167 m 1,4,-1
 501 0 l 1,5,6
 501 0 501 0 167 0 c 1,7,-1
 167 167 l 1,8,-1
 501 167 l 1,4,-1
501 167 m 1,9,-1
 501 334 l 1,10,-1
 668 334 l 1,11,-1
 668 167 l 1,12,-1
 501 167 l 1,9,-1
167 167 m 1,13,-1
 0 167 l 1,14,15
 0 167 0 167 0 834 c 1,16,-1
 167 834 l 1,17,18
 167 834 167 834 167 167 c 1,13,-1
501 834 m 1,19,20
 501 834 501 834 167 834 c 1,21,-1
 167 1001 l 1,22,23
 167 1001 167 1001 501 1001 c 1,24,-1
 501 834 l 1,19,20
EndSplineSet
EndChar

StartChar: D
Encoding: 68 68 39
Width: 833
GlyphClass: 2
Flags: W
LayerCount: 2
Fore
SplineSet
501 167 m 1,0,1
 501 167 501 167 501 834 c 1,2,3
 501 834 501 834 167 834 c 1,4,-1
 167 167 l 1,5,-1
 501 167 l 1,0,1
0 0 m 1,6,7
 0 0 0 0 0 1001 c 1,8,9
 0 1001 0 1001 501 1001 c 1,10,-1
 501 834 l 1,11,-1
 668 834 l 1,12,13
 668 834 668 834 668 167 c 1,14,-1
 501 167 l 1,15,-1
 501 0 l 1,16,17
 501 0 501 0 0 0 c 1,6,7
EndSplineSet
EndChar

StartChar: E
Encoding: 69 69 40
Width: 833
GlyphClass: 2
Flags: W
LayerCount: 2
Fore
SplineSet
668 167 m 1,0,-1
 668 0 l 1,1,2
 668 0 668 0 0 0 c 1,3,4
 0 0 0 0 0 1001 c 1,5,6
 0 1001 0 1001 668 1001 c 1,7,-1
 668 834 l 1,8,9
 668 834 668 834 167 834 c 1,10,-1
 167 668 l 1,11,12
 167 668 167 668 501 668 c 1,13,-1
 501 501 l 1,14,15
 501 501 501 501 167 501 c 1,16,17
 167 501 167 501 167 167 c 1,18,-1
 668 167 l 1,0,-1
EndSplineSet
EndChar

StartChar: F
Encoding: 70 70 41
Width: 833
GlyphClass: 2
Flags: W
LayerCount: 2
Fore
SplineSet
0 0 m 1,0,1
 0 0 0 0 0 1001 c 1,2,3
 0 1001 0 1001 668 1001 c 1,4,-1
 668 834 l 1,5,6
 668 834 668 834 167 834 c 1,7,-1
 167 668 l 1,8,9
 167 668 167 668 501 668 c 1,10,-1
 501 501 l 1,11,12
 501 501 501 501 167 501 c 1,13,-1
 167 0 l 1,14,-1
 0 0 l 1,0,1
EndSplineSet
EndChar

StartChar: G
Encoding: 71 71 42
Width: 833
GlyphClass: 2
Flags: W
LayerCount: 2
Fore
SplineSet
501 167 m 1,0,-1
 501 0 l 1,1,2
 501 0 501 0 167 0 c 1,3,-1
 167 167 l 1,4,-1
 501 167 l 1,0,-1
501 167 m 1,5,6
 501 167 501 167 501 501 c 1,7,-1
 334 501 l 1,8,-1
 334 668 l 1,9,10
 334 668 334 668 668 668 c 1,11,12
 668 668 668 668 668 167 c 1,13,-1
 501 167 l 1,5,6
167 167 m 1,14,-1
 0 167 l 1,15,16
 0 167 0 167 0 834 c 1,17,-1
 167 834 l 1,18,19
 167 834 167 834 167 167 c 1,14,-1
668 1001 m 1,20,-1
 668 834 l 1,21,22
 668 834 668 834 167 834 c 1,23,-1
 167 1001 l 1,24,25
 167 1001 167 1001 668 1001 c 1,20,-1
EndSplineSet
EndChar

StartChar: H
Encoding: 72 72 43
Width: 833
GlyphClass: 2
Flags: W
LayerCount: 2
Fore
SplineSet
501 0 m 1,0,1
 501 0 501 0 501 501 c 1,2,3
 501 501 501 501 167 501 c 1,4,5
 167 501 167 501 167 0 c 1,6,-1
 0 0 l 1,7,8
 0 0 0 0 0 1001 c 1,9,-1
 167 1001 l 1,10,11
 167 1001 167 1001 167 668 c 1,12,13
 167 668 167 668 501 668 c 1,14,15
 501 668 501 668 501 1001 c 1,16,-1
 668 1001 l 1,17,-1
 668 0 l 1,18,-1
 501 0 l 1,0,1
EndSplineSet
EndChar

StartChar: I
Encoding: 73 73 44
Width: 666
GlyphClass: 2
Flags: W
LayerCount: 2
Fore
SplineSet
0 0 m 1,0,-1
 0 167 l 1,1,-1
 167 167 l 1,2,3
 167 167 167 167 167 834 c 1,4,-1
 0 834 l 1,5,-1
 0 1001 l 1,6,7
 0 1001 0 1001 501 1001 c 1,8,-1
 501 834 l 1,9,-1
 334 834 l 1,10,11
 334 834 334 834 334 167 c 1,12,-1
 501 167 l 1,13,-1
 501 0 l 1,14,-1
 0 0 l 1,0,-1
EndSplineSet
EndChar

StartChar: J
Encoding: 74 74 45
Width: 666
GlyphClass: 2
Flags: W
LayerCount: 2
Fore
SplineSet
334 167 m 1,0,-1
 334 0 l 1,1,2
 334 0 334 0 0 0 c 1,3,-1
 0 167 l 1,4,-1
 334 167 l 1,0,-1
334 167 m 1,5,6
 334 167 334 167 334 834 c 1,7,8
 334 834 334 834 0 834 c 1,9,-1
 0 1001 l 1,10,11
 0 1001 0 1001 501 1001 c 1,12,13
 501 1001 501 1001 501 167 c 1,14,-1
 334 167 l 1,5,6
EndSplineSet
EndChar

StartChar: K
Encoding: 75 75 46
Width: 833
GlyphClass: 2
Flags: W
LayerCount: 2
Fore
SplineSet
501 0 m 1,0,-1
 501 167 l 1,1,-1
 668 167 l 1,2,-1
 668 0 l 1,3,-1
 501 0 l 1,0,-1
0 0 m 1,4,5
 0 0 0 0 0 1001 c 1,6,-1
 167 1001 l 1,7,8
 167 1001 167 1001 167 501 c 1,9,-1
 334 501 l 1,10,-1
 334 334 l 1,11,-1
 501 334 l 1,12,-1
 501 167 l 1,13,-1
 334 167 l 1,14,-1
 334 334 l 1,15,-1
 167 334 l 1,16,-1
 167 0 l 1,17,-1
 0 0 l 1,4,5
334 501 m 1,18,-1
 334 668 l 1,19,-1
 501 668 l 1,20,-1
 501 501 l 1,21,-1
 334 501 l 1,18,-1
501 668 m 1,22,-1
 501 834 l 1,23,-1
 668 834 l 1,24,-1
 668 668 l 1,25,-1
 501 668 l 1,22,-1
EndSplineSet
EndChar

StartChar: L
Encoding: 76 76 47
Width: 833
GlyphClass: 2
Flags: W
LayerCount: 2
Fore
SplineSet
668 167 m 1,0,-1
 668 0 l 1,1,2
 668 0 668 0 0 0 c 1,3,4
 0 0 0 0 0 1001 c 1,5,-1
 167 1001 l 1,6,7
 167 1001 167 1001 167 167 c 1,8,-1
 668 167 l 1,0,-1
EndSplineSet
EndChar

StartChar: M
Encoding: 77 77 48
Width: 1000
GlyphClass: 2
Flags: W
LayerCount: 2
Fore
SplineSet
668 0 m 1,0,1
 668 0 668 0 668 668 c 1,2,-1
 501 668 l 1,3,-1
 501 501 l 1,4,-1
 334 501 l 1,5,-1
 334 668 l 1,6,-1
 501 668 l 1,7,-1
 501 834 l 1,8,-1
 668 834 l 1,9,-1
 668 1001 l 1,10,-1
 834 1001 l 1,11,-1
 834 0 l 1,12,-1
 668 0 l 1,0,1
0 0 m 1,13,14
 0 0 0 0 0 1001 c 1,15,-1
 167 1001 l 1,16,-1
 167 834 l 1,17,-1
 334 834 l 1,18,-1
 334 668 l 1,19,-1
 167 668 l 1,20,21
 167 668 167 668 167 0 c 1,22,-1
 0 0 l 1,13,14
EndSplineSet
EndChar

StartChar: N
Encoding: 78 78 49
Width: 1000
GlyphClass: 2
Flags: W
LayerCount: 2
Fore
SplineSet
668 0 m 1,0,1
 668 0 668 0 668 334 c 1,2,-1
 501 334 l 1,3,-1
 501 501 l 1,4,-1
 668 501 l 1,5,6
 668 501 668 501 668 1001 c 1,7,-1
 834 1001 l 1,8,-1
 834 0 l 1,9,-1
 668 0 l 1,0,1
0 0 m 1,10,11
 0 0 0 0 0 1001 c 1,12,-1
 167 1001 l 1,13,-1
 167 834 l 1,14,-1
 334 834 l 1,15,-1
 334 668 l 1,16,-1
 501 668 l 1,17,-1
 501 501 l 1,18,-1
 334 501 l 1,19,-1
 334 668 l 1,20,-1
 167 668 l 1,21,22
 167 668 167 668 167 0 c 1,23,-1
 0 0 l 1,10,11
EndSplineSet
EndChar

StartChar: O
Encoding: 79 79 50
Width: 1000
GlyphClass: 2
Flags: W
LayerCount: 2
Fore
SplineSet
668 167 m 1,0,-1
 668 0 l 1,1,2
 668 0 668 0 167 0 c 1,3,-1
 167 167 l 1,4,-1
 668 167 l 1,0,-1
668 167 m 1,5,6
 668 167 668 167 668 834 c 1,7,-1
 834 834 l 1,8,9
 834 834 834 834 834 167 c 1,10,-1
 668 167 l 1,5,6
167 167 m 1,11,-1
 0 167 l 1,12,13
 0 167 0 167 0 834 c 1,14,-1
 167 834 l 1,15,16
 167 834 167 834 167 167 c 1,11,-1
668 834 m 1,17,18
 668 834 668 834 167 834 c 1,19,-1
 167 1001 l 1,20,21
 167 1001 167 1001 668 1001 c 1,22,-1
 668 834 l 1,17,18
EndSplineSet
EndChar

StartChar: P
Encoding: 80 80 51
Width: 833
GlyphClass: 2
Flags: W
LayerCount: 2
Fore
SplineSet
0 0 m 1,0,1
 0 0 0 0 0 1001 c 1,2,3
 0 1001 0 1001 501 1001 c 1,4,-1
 501 834 l 1,5,-1
 668 834 l 1,6,7
 668 834 668 834 668 501 c 1,8,-1
 501 501 l 1,9,10
 501 501 501 501 501 834 c 1,11,12
 501 834 501 834 167 834 c 1,13,14
 167 834 167 834 167 501 c 1,15,16
 167 501 167 501 501 501 c 1,17,-1
 501 334 l 1,18,19
 501 334 501 334 167 334 c 1,20,-1
 167 0 l 1,21,-1
 0 0 l 1,0,1
EndSplineSet
EndChar

StartChar: Q
Encoding: 81 81 52
Width: 1166
GlyphClass: 2
Flags: W
LayerCount: 2
Fore
SplineSet
834 0 m 1,0,-1
 834 167 l 1,1,-1
 1001 167 l 1,2,-1
 1001 0 l 1,3,-1
 834 0 l 1,0,-1
668 167 m 1,4,-1
 668 0 l 1,5,6
 668 0 668 0 167 0 c 1,7,-1
 167 167 l 1,8,-1
 668 167 l 1,4,-1
668 167 m 1,9,10
 668 167 668 167 668 834 c 1,11,-1
 834 834 l 1,12,13
 834 834 834 834 834 167 c 1,14,-1
 668 167 l 1,9,10
167 167 m 1,15,-1
 0 167 l 1,16,17
 0 167 0 167 0 834 c 1,18,-1
 167 834 l 1,19,20
 167 834 167 834 167 167 c 1,15,-1
668 834 m 1,21,22
 668 834 668 834 167 834 c 1,23,-1
 167 1001 l 1,24,25
 167 1001 167 1001 668 1001 c 1,26,-1
 668 834 l 1,21,22
EndSplineSet
EndChar

StartChar: R
Encoding: 82 82 53
Width: 833
GlyphClass: 2
Flags: W
LayerCount: 2
Fore
SplineSet
501 0 m 1,0,1
 501 0 501 0 501 334 c 1,2,-1
 668 334 l 1,3,-1
 668 0 l 1,4,-1
 501 0 l 1,0,1
0 0 m 1,5,6
 0 0 0 0 0 1001 c 1,7,8
 0 1001 0 1001 501 1001 c 1,9,-1
 501 834 l 1,10,-1
 668 834 l 1,11,12
 668 834 668 834 668 501 c 1,13,-1
 501 501 l 1,14,15
 501 501 501 501 501 834 c 1,16,17
 501 834 501 834 167 834 c 1,18,19
 167 834 167 834 167 501 c 1,20,21
 167 501 167 501 501 501 c 1,22,-1
 501 334 l 1,23,24
 501 334 501 334 167 334 c 1,25,26
 167 334 167 334 167 0 c 1,27,-1
 0 0 l 1,5,6
EndSplineSet
EndChar

StartChar: S
Encoding: 83 83 54
Width: 833
GlyphClass: 2
Flags: W
LayerCount: 2
Fore
SplineSet
501 167 m 1,0,-1
 501 0 l 1,1,2
 501 0 501 0 167 0 c 1,3,-1
 167 167 l 1,4,-1
 501 167 l 1,0,-1
501 167 m 1,5,6
 501 167 501 167 501 501 c 1,7,-1
 668 501 l 1,8,9
 668 501 668 501 668 167 c 1,10,-1
 501 167 l 1,5,6
167 167 m 1,11,-1
 0 167 l 1,12,-1
 0 334 l 1,13,-1
 167 334 l 1,14,-1
 167 167 l 1,11,-1
501 501 m 1,15,16
 501 501 501 501 167 501 c 1,17,-1
 167 668 l 1,18,19
 167 668 167 668 501 668 c 1,20,-1
 501 501 l 1,15,16
167 668 m 1,21,-1
 0 668 l 1,22,-1
 0 834 l 1,23,-1
 167 834 l 1,24,-1
 167 668 l 1,21,-1
668 1001 m 1,25,-1
 668 834 l 1,26,27
 668 834 668 834 167 834 c 1,28,-1
 167 1001 l 1,29,30
 167 1001 167 1001 668 1001 c 1,25,-1
EndSplineSet
EndChar

StartChar: T
Encoding: 84 84 55
Width: 1000
GlyphClass: 2
Flags: W
LayerCount: 2
Fore
SplineSet
334 0 m 1,0,1
 334 0 334 0 334 834 c 1,2,3
 334 834 334 834 0 834 c 1,4,-1
 0 1001 l 1,5,6
 0 1001 0 1001 834 1001 c 1,7,-1
 834 834 l 1,8,9
 834 834 834 834 501 834 c 1,10,-1
 501 0 l 1,11,-1
 334 0 l 1,0,1
EndSplineSet
EndChar

StartChar: U
Encoding: 85 85 56
Width: 1000
GlyphClass: 2
Flags: W
LayerCount: 2
Fore
SplineSet
668 167 m 1,0,-1
 668 0 l 1,1,2
 668 0 668 0 167 0 c 1,3,-1
 167 167 l 1,4,-1
 668 167 l 1,0,-1
668 167 m 1,5,6
 668 167 668 167 668 1001 c 1,7,-1
 834 1001 l 1,8,9
 834 1001 834 1001 834 167 c 1,10,-1
 668 167 l 1,5,6
167 167 m 1,11,-1
 0 167 l 1,12,13
 0 167 0 167 0 1001 c 1,14,-1
 167 1001 l 1,15,16
 167 1001 167 1001 167 167 c 1,11,-1
EndSplineSet
EndChar

StartChar: V
Encoding: 86 86 57
Width: 1000
GlyphClass: 2
Flags: W
LayerCount: 2
Fore
SplineSet
334 0 m 1,0,1
 334 0 334 0 334 334 c 1,2,-1
 501 334 l 1,3,-1
 501 0 l 1,4,-1
 334 0 l 1,0,1
501 334 m 1,5,6
 501 334 501 334 501 668 c 1,7,-1
 668 668 l 1,8,9
 668 668 668 668 668 334 c 1,10,-1
 501 334 l 1,5,6
334 334 m 1,11,-1
 167 334 l 1,12,13
 167 334 167 334 167 668 c 1,14,-1
 334 668 l 1,15,16
 334 668 334 668 334 334 c 1,11,-1
668 668 m 1,17,18
 668 668 668 668 668 1001 c 1,19,-1
 834 1001 l 1,20,21
 834 1001 834 1001 834 668 c 1,22,-1
 668 668 l 1,17,18
167 668 m 1,23,-1
 0 668 l 1,24,25
 0 668 0 668 0 1001 c 1,26,-1
 167 1001 l 1,27,28
 167 1001 167 1001 167 668 c 1,23,-1
EndSplineSet
EndChar

StartChar: W
Encoding: 87 87 58
Width: 1000
GlyphClass: 2
Flags: W
LayerCount: 2
Fore
SplineSet
501 0 m 1,0,-1
 501 167 l 1,1,-1
 668 167 l 1,2,-1
 668 0 l 1,3,-1
 501 0 l 1,0,-1
167 0 m 1,4,-1
 167 167 l 1,5,-1
 334 167 l 1,6,-1
 334 0 l 1,7,-1
 167 0 l 1,4,-1
668 167 m 1,8,9
 668 167 668 167 668 1001 c 1,10,-1
 834 1001 l 1,11,-1
 834 167 l 1,12,-1
 668 167 l 1,8,9
334 167 m 1,13,14
 334 167 334 167 334 668 c 1,15,-1
 501 668 l 1,16,17
 501 668 501 668 501 167 c 1,18,-1
 334 167 l 1,13,14
167 167 m 1,19,-1
 0 167 l 1,20,21
 0 167 0 167 0 1001 c 1,22,-1
 167 1001 l 1,23,24
 167 1001 167 1001 167 167 c 1,19,-1
EndSplineSet
EndChar

StartChar: X
Encoding: 88 88 59
Width: 1000
GlyphClass: 2
Flags: W
LayerCount: 2
Fore
SplineSet
668 0 m 1,0,1
 668 0 668 0 668 334 c 1,2,-1
 834 334 l 1,3,-1
 834 0 l 1,4,-1
 668 0 l 1,0,1
0 0 m 1,5,6
 0 0 0 0 0 334 c 1,7,-1
 167 334 l 1,8,9
 167 334 167 334 167 0 c 1,10,-1
 0 0 l 1,5,6
668 334 m 1,11,-1
 501 334 l 1,12,-1
 501 501 l 1,13,-1
 668 501 l 1,14,-1
 668 334 l 1,11,-1
167 334 m 1,15,-1
 167 501 l 1,16,-1
 334 501 l 1,17,-1
 334 334 l 1,18,-1
 167 334 l 1,15,-1
334 501 m 1,19,-1
 334 668 l 1,20,-1
 501 668 l 1,21,-1
 501 501 l 1,22,-1
 334 501 l 1,19,-1
501 668 m 1,23,-1
 501 834 l 1,24,-1
 668 834 l 1,25,-1
 668 668 l 1,26,-1
 501 668 l 1,23,-1
334 668 m 1,27,-1
 167 668 l 1,28,-1
 167 834 l 1,29,-1
 334 834 l 1,30,-1
 334 668 l 1,27,-1
668 834 m 1,31,-1
 668 1001 l 1,32,-1
 834 1001 l 1,33,-1
 834 834 l 1,34,-1
 668 834 l 1,31,-1
167 834 m 1,35,-1
 0 834 l 1,36,-1
 0 1001 l 1,37,-1
 167 1001 l 1,38,-1
 167 834 l 1,35,-1
EndSplineSet
EndChar

StartChar: Y
Encoding: 89 89 60
Width: 1000
GlyphClass: 2
Flags: W
LayerCount: 2
Fore
SplineSet
334 0 m 1,0,1
 334 0 334 0 334 668 c 1,2,-1
 501 668 l 1,3,-1
 501 0 l 1,4,-1
 334 0 l 1,0,1
501 668 m 1,5,-1
 501 834 l 1,6,-1
 668 834 l 1,7,-1
 668 668 l 1,8,-1
 501 668 l 1,5,-1
334 668 m 1,9,-1
 167 668 l 1,10,-1
 167 834 l 1,11,-1
 334 834 l 1,12,-1
 334 668 l 1,9,-1
668 834 m 1,13,-1
 668 1001 l 1,14,-1
 834 1001 l 1,15,-1
 834 834 l 1,16,-1
 668 834 l 1,13,-1
167 834 m 1,17,-1
 0 834 l 1,18,-1
 0 1001 l 1,19,-1
 167 1001 l 1,20,-1
 167 834 l 1,17,-1
EndSplineSet
EndChar

StartChar: Z
Encoding: 90 90 61
Width: 833
GlyphClass: 2
Flags: W
LayerCount: 2
Fore
SplineSet
668 167 m 1,0,-1
 668 0 l 1,1,2
 668 0 668 0 0 0 c 1,3,4
 0 0 0 0 0 334 c 1,5,-1
 167 334 l 1,6,-1
 167 167 l 1,7,-1
 668 167 l 1,0,-1
167 334 m 1,8,-1
 167 501 l 1,9,-1
 334 501 l 1,10,-1
 334 334 l 1,11,-1
 167 334 l 1,8,-1
334 501 m 1,12,-1
 334 668 l 1,13,-1
 501 668 l 1,14,-1
 501 501 l 1,15,-1
 334 501 l 1,12,-1
501 668 m 1,16,-1
 501 834 l 1,17,18
 501 834 501 834 0 834 c 1,19,-1
 0 1001 l 1,20,21
 0 1001 0 1001 668 1001 c 1,22,23
 668 1001 668 1001 668 668 c 1,24,-1
 501 668 l 1,16,-1
EndSplineSet
EndChar

StartChar: bracketleft
Encoding: 91 91 62
Width: 500
GlyphClass: 2
Flags: W
LayerCount: 2
Fore
SplineSet
0 0 m 1,0,1
 0 0 0 0 0 1001 c 1,2,3
 0 1001 0 1001 334 1001 c 1,4,-1
 334 834 l 1,5,-1
 167 834 l 1,6,7
 167 834 167 834 167 167 c 1,8,-1
 334 167 l 1,9,-1
 334 0 l 1,10,-1
 0 0 l 1,0,1
EndSplineSet
EndChar

StartChar: backslash
Encoding: 92 92 63
Width: 666
GlyphClass: 2
Flags: W
LayerCount: 2
Fore
SplineSet
334 0 m 1,0,1
 334 0 334 0 334 334 c 1,2,-1
 501 334 l 1,3,-1
 501 0 l 1,4,-1
 334 0 l 1,0,1
334 334 m 1,5,-1
 167 334 l 1,6,7
 167 334 167 334 167 668 c 1,8,-1
 334 668 l 1,9,10
 334 668 334 668 334 334 c 1,5,-1
167 668 m 1,11,-1
 0 668 l 1,12,13
 0 668 0 668 0 1001 c 1,14,-1
 167 1001 l 1,15,16
 167 1001 167 1001 167 668 c 1,11,-1
EndSplineSet
EndChar

StartChar: bracketright
Encoding: 93 93 64
Width: 500
GlyphClass: 2
Flags: W
LayerCount: 2
Fore
SplineSet
0 0 m 1,0,-1
 0 167 l 1,1,-1
 167 167 l 1,2,3
 167 167 167 167 167 834 c 1,4,-1
 0 834 l 1,5,-1
 0 1001 l 1,6,7
 0 1001 0 1001 334 1001 c 1,8,9
 334 1001 334 1001 334 0 c 1,10,-1
 0 0 l 1,0,-1
EndSplineSet
EndChar

StartChar: asciicircum
Encoding: 94 94 65
Width: 666
GlyphClass: 2
Flags: W
LayerCount: 2
Fore
SplineSet
334 668 m 1,0,-1
 334 834 l 1,1,-1
 501 834 l 1,2,-1
 501 668 l 1,3,-1
 334 668 l 1,0,-1
0 668 m 1,4,-1
 0 834 l 1,5,-1
 167 834 l 1,6,-1
 167 668 l 1,7,-1
 0 668 l 1,4,-1
167 834 m 1,8,-1
 167 1001 l 1,9,-1
 334 1001 l 1,10,-1
 334 834 l 1,11,-1
 167 834 l 1,8,-1
EndSplineSet
EndChar

StartChar: underscore
Encoding: 95 95 66
Width: 833
GlyphClass: 2
Flags: W
LayerCount: 2
Fore
SplineSet
668 167 m 1,0,-1
 668 0 l 1,1,2
 668 0 668 0 0 0 c 1,3,-1
 0 167 l 1,4,-1
 668 167 l 1,0,-1
EndSplineSet
EndChar

StartChar: grave
Encoding: 96 96 67
Width: 500
GlyphClass: 2
Flags: W
LayerCount: 2
Fore
SplineSet
167 668 m 1,0,-1
 167 834 l 1,1,-1
 334 834 l 1,2,-1
 334 668 l 1,3,-1
 167 668 l 1,0,-1
167 834 m 1,4,-1
 0 834 l 1,5,-1
 0 1001 l 1,6,-1
 167 1001 l 1,7,-1
 167 834 l 1,4,-1
EndSplineSet
EndChar

StartChar: a
Encoding: 97 97 68
Width: 833
GlyphClass: 2
Flags: W
LayerCount: 2
Fore
SplineSet
167 0 m 1,0,-1
 167 167 l 1,1,-1
 0 167 l 1,2,3
 0 167 0 167 0 668 c 1,4,-1
 167 668 l 1,5,-1
 167 834 l 1,6,7
 167 834 167 834 668 834 c 1,8,9
 668 834 668 834 668 0 c 1,10,-1
 167 0 l 1,0,-1
501 167 m 1,11,12
 501 167 501 167 501 668 c 1,13,14
 501 668 501 668 167 668 c 1,15,16
 167 668 167 668 167 167 c 1,17,18
 167 167 167 167 501 167 c 1,11,12
EndSplineSet
EndChar

StartChar: b
Encoding: 98 98 69
Width: 833
GlyphClass: 2
Flags: W
LayerCount: 2
Fore
SplineSet
501 167 m 1,0,1
 501 167 501 167 501 501 c 1,2,3
 501 501 501 501 167 501 c 1,4,5
 167 501 167 501 167 167 c 1,6,-1
 501 167 l 1,0,1
0 0 m 1,7,8
 0 0 0 0 0 834 c 1,9,-1
 167 834 l 1,10,-1
 167 668 l 1,11,12
 167 668 167 668 501 668 c 1,13,-1
 501 501 l 1,14,-1
 668 501 l 1,15,16
 668 501 668 501 668 167 c 1,17,-1
 501 167 l 1,18,-1
 501 0 l 1,19,20
 501 0 501 0 0 0 c 1,7,8
EndSplineSet
EndChar

StartChar: c
Encoding: 99 99 70
Width: 833
GlyphClass: 2
Flags: W
LayerCount: 2
Fore
SplineSet
501 501 m 1,0,-1
 501 668 l 1,1,-1
 668 668 l 1,2,-1
 668 501 l 1,3,-1
 501 501 l 1,0,-1
501 167 m 1,4,-1
 501 0 l 1,5,6
 501 0 501 0 167 0 c 1,7,-1
 167 167 l 1,8,-1
 501 167 l 1,4,-1
501 167 m 1,9,-1
 501 334 l 1,10,-1
 668 334 l 1,11,-1
 668 167 l 1,12,-1
 501 167 l 1,9,-1
167 167 m 1,13,-1
 0 167 l 1,14,15
 0 167 0 167 0 668 c 1,16,-1
 167 668 l 1,17,18
 167 668 167 668 167 167 c 1,13,-1
501 668 m 1,19,20
 501 668 501 668 167 668 c 1,21,-1
 167 834 l 1,22,23
 167 834 167 834 501 834 c 1,24,-1
 501 668 l 1,19,20
EndSplineSet
EndChar

StartChar: d
Encoding: 100 100 71
Width: 833
GlyphClass: 2
Flags: W
LayerCount: 2
Fore
SplineSet
167 0 m 1,0,-1
 167 167 l 1,1,-1
 0 167 l 1,2,3
 0 167 0 167 0 501 c 1,4,-1
 167 501 l 1,5,-1
 167 668 l 1,6,7
 167 668 167 668 501 668 c 1,8,-1
 501 834 l 1,9,-1
 668 834 l 1,10,11
 668 834 668 834 668 0 c 1,12,-1
 167 0 l 1,0,-1
501 167 m 1,13,-1
 501 501 l 1,14,15
 501 501 501 501 167 501 c 1,16,17
 167 501 167 501 167 167 c 1,18,19
 167 167 167 167 501 167 c 1,13,-1
EndSplineSet
EndChar

StartChar: e
Encoding: 101 101 72
Width: 833
GlyphClass: 2
Flags: W
LayerCount: 2
Fore
SplineSet
668 167 m 1,0,-1
 668 0 l 1,1,2
 668 0 668 0 167 0 c 1,3,-1
 167 167 l 1,4,-1
 668 167 l 1,0,-1
167 167 m 1,5,-1
 0 167 l 1,6,7
 0 167 0 167 0 668 c 1,8,-1
 167 668 l 1,9,-1
 167 501 l 1,10,11
 167 501 167 501 501 501 c 1,12,-1
 501 668 l 1,13,-1
 668 668 l 1,14,15
 668 668 668 668 668 334 c 1,16,17
 668 334 668 334 167 334 c 1,18,-1
 167 167 l 1,5,-1
501 668 m 1,19,20
 501 668 501 668 167 668 c 1,21,-1
 167 834 l 1,22,23
 167 834 167 834 501 834 c 1,24,-1
 501 668 l 1,19,20
EndSplineSet
EndChar

StartChar: f
Encoding: 102 102 73
Width: 666
GlyphClass: 2
Flags: W
LayerCount: 2
Fore
SplineSet
0 0 m 1,0,1
 0 0 0 0 0 668 c 1,2,-1
 167 668 l 1,3,-1
 167 501 l 1,4,5
 167 501 167 501 501 501 c 1,6,-1
 501 334 l 1,7,8
 501 334 501 334 167 334 c 1,9,-1
 167 0 l 1,10,-1
 0 0 l 1,0,1
501 834 m 1,11,-1
 501 668 l 1,12,13
 501 668 501 668 167 668 c 1,14,-1
 167 834 l 1,15,16
 167 834 167 834 501 834 c 1,11,-1
EndSplineSet
EndChar

StartChar: g
Encoding: 103 103 74
Width: 833
GlyphClass: 2
Flags: W
LayerCount: 2
Fore
SplineSet
501 167 m 1,0,-1
 501 0 l 1,1,2
 501 0 501 0 0 0 c 1,3,-1
 0 167 l 1,4,-1
 501 167 l 1,0,-1
501 167 m 1,5,-1
 501 334 l 1,6,7
 501 334 501 334 0 334 c 1,8,9
 0 334 0 334 0 668 c 1,10,-1
 167 668 l 1,11,-1
 167 834 l 1,12,13
 167 834 167 834 668 834 c 1,14,15
 668 834 668 834 668 167 c 1,16,-1
 501 167 l 1,5,-1
501 501 m 1,17,-1
 501 668 l 1,18,19
 501 668 501 668 167 668 c 1,20,-1
 167 501 l 1,21,22
 167 501 167 501 501 501 c 1,17,-1
EndSplineSet
EndChar

StartChar: h
Encoding: 104 104 75
Width: 833
GlyphClass: 2
Flags: W
LayerCount: 2
Fore
SplineSet
501 0 m 1,0,1
 501 0 501 0 501 501 c 1,2,-1
 668 501 l 1,3,-1
 668 0 l 1,4,-1
 501 0 l 1,0,1
0 0 m 1,5,6
 0 0 0 0 0 834 c 1,7,-1
 167 834 l 1,8,-1
 167 668 l 1,9,10
 167 668 167 668 501 668 c 1,11,-1
 501 501 l 1,12,13
 501 501 501 501 167 501 c 1,14,15
 167 501 167 501 167 0 c 1,16,-1
 0 0 l 1,5,6
EndSplineSet
EndChar

StartChar: i
Encoding: 105 105 76
Width: 333
GlyphClass: 2
Flags: W
LayerCount: 2
Fore
SplineSet
0 0 m 1,0,1
 0 0 0 0 0 501 c 1,2,-1
 167 501 l 1,3,-1
 167 0 l 1,4,-1
 0 0 l 1,0,1
0 668 m 1,5,-1
 0 834 l 1,6,-1
 167 834 l 1,7,-1
 167 668 l 1,8,-1
 0 668 l 1,5,-1
EndSplineSet
EndChar

StartChar: j
Encoding: 106 106 77
Width: 666
GlyphClass: 2
Flags: W
LayerCount: 2
Fore
SplineSet
334 834 m 1,0,-1
 334 1001 l 1,1,-1
 501 1001 l 1,2,-1
 501 834 l 1,3,-1
 334 834 l 1,0,-1
334 167 m 1,4,-1
 334 0 l 1,5,6
 334 0 334 0 0 0 c 1,7,-1
 0 167 l 1,8,-1
 334 167 l 1,4,-1
334 167 m 1,9,10
 334 167 334 167 334 501 c 1,11,-1
 167 501 l 1,12,-1
 167 668 l 1,13,14
 167 668 167 668 501 668 c 1,15,16
 501 668 501 668 501 167 c 1,17,-1
 334 167 l 1,9,10
EndSplineSet
EndChar

StartChar: k
Encoding: 107 107 78
Width: 833
GlyphClass: 2
Flags: W
LayerCount: 2
Fore
SplineSet
501 0 m 1,0,-1
 501 167 l 1,1,-1
 668 167 l 1,2,-1
 668 0 l 1,3,-1
 501 0 l 1,0,-1
0 0 m 1,4,5
 0 0 0 0 0 834 c 1,6,-1
 167 834 l 1,7,8
 167 834 167 834 167 501 c 1,9,-1
 334 501 l 1,10,-1
 334 334 l 1,11,-1
 501 334 l 1,12,-1
 501 167 l 1,13,-1
 334 167 l 1,14,-1
 334 334 l 1,15,-1
 167 334 l 1,16,-1
 167 0 l 1,17,-1
 0 0 l 1,4,5
334 501 m 1,18,-1
 334 668 l 1,19,-1
 501 668 l 1,20,-1
 501 501 l 1,21,-1
 334 501 l 1,18,-1
501 668 m 1,22,-1
 501 834 l 1,23,-1
 668 834 l 1,24,-1
 668 668 l 1,25,-1
 501 668 l 1,22,-1
EndSplineSet
EndChar

StartChar: l
Encoding: 108 108 79
Width: 500
GlyphClass: 2
Flags: W
LayerCount: 2
Fore
SplineSet
167 0 m 1,0,1
 167 0 167 0 167 668 c 1,2,-1
 0 668 l 1,3,-1
 0 834 l 1,4,5
 0 834 0 834 334 834 c 1,6,-1
 334 0 l 1,7,-1
 167 0 l 1,0,1
EndSplineSet
EndChar

StartChar: m
Encoding: 109 109 80
Width: 1000
GlyphClass: 2
Flags: W
LayerCount: 2
Fore
SplineSet
668 0 m 1,0,1
 668 0 668 0 668 668 c 1,2,-1
 834 668 l 1,3,-1
 834 0 l 1,4,-1
 668 0 l 1,0,1
0 0 m 1,5,6
 0 0 0 0 0 834 c 1,7,8
 0 834 0 834 668 834 c 1,9,-1
 668 668 l 1,10,-1
 501 668 l 1,11,12
 501 668 501 668 501 167 c 1,13,-1
 334 167 l 1,14,15
 334 167 334 167 334 668 c 1,16,-1
 167 668 l 1,17,18
 167 668 167 668 167 0 c 1,19,-1
 0 0 l 1,5,6
EndSplineSet
EndChar

StartChar: n
Encoding: 110 110 81
Width: 833
GlyphClass: 2
Flags: W
LayerCount: 2
Fore
SplineSet
501 0 m 1,0,1
 501 0 501 0 501 668 c 1,2,-1
 668 668 l 1,3,-1
 668 0 l 1,4,-1
 501 0 l 1,0,1
0 0 m 1,5,6
 0 0 0 0 0 834 c 1,7,8
 0 834 0 834 501 834 c 1,9,-1
 501 668 l 1,10,11
 501 668 501 668 167 668 c 1,12,13
 167 668 167 668 167 0 c 1,14,-1
 0 0 l 1,5,6
EndSplineSet
EndChar

StartChar: o
Encoding: 111 111 82
Width: 833
GlyphClass: 2
Flags: W
LayerCount: 2
Fore
SplineSet
501 167 m 1,0,-1
 501 0 l 1,1,2
 501 0 501 0 167 0 c 1,3,-1
 167 167 l 1,4,-1
 501 167 l 1,0,-1
501 167 m 1,5,6
 501 167 501 167 501 668 c 1,7,-1
 668 668 l 1,8,9
 668 668 668 668 668 167 c 1,10,-1
 501 167 l 1,5,6
167 167 m 1,11,-1
 0 167 l 1,12,13
 0 167 0 167 0 668 c 1,14,-1
 167 668 l 1,15,16
 167 668 167 668 167 167 c 1,11,-1
501 668 m 1,17,18
 501 668 501 668 167 668 c 1,19,-1
 167 834 l 1,20,21
 167 834 167 834 501 834 c 1,22,-1
 501 668 l 1,17,18
EndSplineSet
EndChar

StartChar: p
Encoding: 112 112 83
Width: 833
GlyphClass: 2
Flags: W
LayerCount: 2
Fore
SplineSet
0 0 m 1,0,1
 0 0 0 0 0 834 c 1,2,3
 0 834 0 834 501 834 c 1,4,-1
 501 668 l 1,5,-1
 668 668 l 1,6,7
 668 668 668 668 668 334 c 1,8,-1
 501 334 l 1,9,10
 501 334 501 334 501 668 c 1,11,12
 501 668 501 668 167 668 c 1,13,14
 167 668 167 668 167 334 c 1,15,16
 167 334 167 334 501 334 c 1,17,-1
 501 167 l 1,18,-1
 167 167 l 1,19,-1
 167 0 l 1,20,-1
 0 0 l 1,0,1
EndSplineSet
EndChar

StartChar: q
Encoding: 113 113 84
Width: 1000
GlyphClass: 2
Flags: W
LayerCount: 2
Fore
SplineSet
501 0 m 1,0,-1
 501 167 l 1,1,2
 501 167 501 167 167 167 c 1,3,-1
 167 334 l 1,4,-1
 0 334 l 1,5,6
 0 334 0 334 0 668 c 1,7,-1
 167 668 l 1,8,-1
 167 834 l 1,9,10
 167 834 167 834 501 834 c 2,11,-1
 668 834 l 1,12,13
 668 834 668 834 668 167 c 1,14,-1
 834 167 l 1,15,-1
 834 0 l 1,16,-1
 501 0 l 1,0,-1
501 334 m 1,17,18
 501 334 501 334 501 668 c 1,19,20
 501 668 501 668 167 668 c 1,21,22
 167 668 167 668 167 334 c 1,23,24
 167 334 167 334 501 334 c 1,17,18
EndSplineSet
EndChar

StartChar: r
Encoding: 114 114 85
Width: 666
GlyphClass: 2
Flags: W
LayerCount: 2
Fore
SplineSet
0 0 m 1,0,1
 0 0 0 0 0 834 c 1,2,3
 0 834 0 834 501 834 c 1,4,-1
 501 668 l 1,5,6
 501 668 501 668 167 668 c 1,7,-1
 167 0 l 1,8,-1
 0 0 l 1,0,1
EndSplineSet
EndChar

StartChar: s
Encoding: 115 115 86
Width: 666
GlyphClass: 2
Flags: W
LayerCount: 2
Fore
SplineSet
334 167 m 1,0,-1
 334 0 l 1,1,2
 334 0 334 0 0 0 c 1,3,-1
 0 167 l 1,4,-1
 334 167 l 1,0,-1
334 167 m 1,5,-1
 334 334 l 1,6,-1
 501 334 l 1,7,-1
 501 167 l 1,8,-1
 334 167 l 1,5,-1
334 334 m 1,9,-1
 167 334 l 1,10,-1
 167 501 l 1,11,-1
 334 501 l 1,12,-1
 334 334 l 1,9,-1
167 501 m 1,13,-1
 0 501 l 1,14,-1
 0 668 l 1,15,-1
 167 668 l 1,16,-1
 167 501 l 1,13,-1
501 834 m 1,17,-1
 501 668 l 1,18,19
 501 668 501 668 167 668 c 1,20,-1
 167 834 l 1,21,22
 167 834 167 834 501 834 c 1,17,-1
EndSplineSet
EndChar

StartChar: t
Encoding: 116 116 87
Width: 666
GlyphClass: 2
Flags: W
LayerCount: 2
Fore
SplineSet
501 167 m 1,0,-1
 501 0 l 1,1,2
 501 0 501 0 167 0 c 1,3,-1
 167 167 l 1,4,-1
 501 167 l 1,0,-1
167 167 m 1,5,-1
 0 167 l 1,6,7
 0 167 0 167 0 834 c 1,8,-1
 167 834 l 1,9,-1
 167 668 l 1,10,11
 167 668 167 668 501 668 c 1,12,-1
 501 501 l 1,13,14
 501 501 501 501 167 501 c 1,15,16
 167 501 167 501 167 167 c 1,5,-1
EndSplineSet
EndChar

StartChar: u
Encoding: 117 117 88
Width: 833
GlyphClass: 2
Flags: W
LayerCount: 2
Fore
SplineSet
167 0 m 1,0,-1
 167 167 l 1,1,2
 167 167 167 167 501 167 c 1,3,4
 501 167 501 167 501 834 c 1,5,-1
 668 834 l 1,6,7
 668 834 668 834 668 0 c 1,8,-1
 167 0 l 1,0,-1
167 167 m 1,9,-1
 0 167 l 1,10,11
 0 167 0 167 0 834 c 1,12,-1
 167 834 l 1,13,14
 167 834 167 834 167 167 c 1,9,-1
EndSplineSet
EndChar

StartChar: v
Encoding: 118 118 89
Width: 1000
GlyphClass: 2
Flags: W
LayerCount: 2
Fore
SplineSet
334 0 m 1,0,-1
 334 167 l 1,1,-1
 501 167 l 1,2,-1
 501 0 l 1,3,-1
 334 0 l 1,0,-1
501 167 m 1,4,-1
 501 334 l 1,5,-1
 668 334 l 1,6,-1
 668 167 l 1,7,-1
 501 167 l 1,4,-1
334 167 m 1,8,-1
 167 167 l 1,9,-1
 167 334 l 1,10,-1
 334 334 l 1,11,-1
 334 167 l 1,8,-1
668 334 m 1,12,13
 668 334 668 334 668 834 c 1,14,-1
 834 834 l 1,15,-1
 834 334 l 1,16,-1
 668 334 l 1,12,13
167 334 m 1,17,-1
 0 334 l 1,18,19
 0 334 0 334 0 834 c 1,20,-1
 167 834 l 1,21,22
 167 834 167 834 167 334 c 1,17,-1
EndSplineSet
EndChar

StartChar: w
Encoding: 119 119 90
Width: 1000
GlyphClass: 2
Flags: W
LayerCount: 2
Fore
SplineSet
501 0 m 1,0,-1
 501 167 l 1,1,-1
 668 167 l 1,2,-1
 668 0 l 1,3,-1
 501 0 l 1,0,-1
167 0 m 1,4,-1
 167 167 l 1,5,-1
 334 167 l 1,6,-1
 334 0 l 1,7,-1
 167 0 l 1,4,-1
668 167 m 1,8,9
 668 167 668 167 668 834 c 1,10,-1
 834 834 l 1,11,-1
 834 167 l 1,12,-1
 668 167 l 1,8,9
334 167 m 1,13,14
 334 167 334 167 334 501 c 1,15,-1
 501 501 l 1,16,17
 501 501 501 501 501 167 c 1,18,-1
 334 167 l 1,13,14
167 167 m 1,19,-1
 0 167 l 1,20,21
 0 167 0 167 0 834 c 1,22,-1
 167 834 l 1,23,24
 167 834 167 834 167 167 c 1,19,-1
EndSplineSet
EndChar

StartChar: x
Encoding: 120 120 91
Width: 1000
GlyphClass: 2
Flags: W
LayerCount: 2
Fore
SplineSet
668 0 m 1,0,-1
 668 167 l 1,1,-1
 834 167 l 1,2,-1
 834 0 l 1,3,-1
 668 0 l 1,0,-1
0 0 m 1,4,-1
 0 167 l 1,5,-1
 167 167 l 1,6,-1
 167 0 l 1,7,-1
 0 0 l 1,4,-1
668 167 m 1,8,-1
 501 167 l 1,9,-1
 501 334 l 1,10,-1
 668 334 l 1,11,-1
 668 167 l 1,8,-1
167 167 m 1,12,-1
 167 334 l 1,13,-1
 334 334 l 1,14,-1
 334 167 l 1,15,-1
 167 167 l 1,12,-1
334 334 m 1,16,-1
 334 501 l 1,17,-1
 501 501 l 1,18,-1
 501 334 l 1,19,-1
 334 334 l 1,16,-1
501 501 m 1,20,-1
 501 668 l 1,21,-1
 668 668 l 1,22,-1
 668 501 l 1,23,-1
 501 501 l 1,20,-1
334 501 m 1,24,-1
 167 501 l 1,25,-1
 167 668 l 1,26,-1
 334 668 l 1,27,-1
 334 501 l 1,24,-1
668 668 m 1,28,-1
 668 834 l 1,29,-1
 834 834 l 1,30,-1
 834 668 l 1,31,-1
 668 668 l 1,28,-1
167 668 m 1,32,-1
 0 668 l 1,33,-1
 0 834 l 1,34,-1
 167 834 l 1,35,-1
 167 668 l 1,32,-1
EndSplineSet
EndChar

StartChar: y
Encoding: 121 121 92
Width: 833
GlyphClass: 2
Flags: W
LayerCount: 2
Fore
SplineSet
501 167 m 1,0,-1
 501 0 l 1,1,2
 501 0 501 0 0 0 c 1,3,-1
 0 167 l 1,4,-1
 501 167 l 1,0,-1
501 167 m 1,5,-1
 501 334 l 1,6,7
 501 334 501 334 167 334 c 1,8,-1
 167 501 l 1,9,10
 167 501 167 501 501 501 c 1,11,12
 501 501 501 501 501 834 c 1,13,-1
 668 834 l 1,14,15
 668 834 668 834 668 167 c 1,16,-1
 501 167 l 1,5,-1
167 501 m 1,17,-1
 0 501 l 1,18,19
 0 501 0 501 0 834 c 1,20,-1
 167 834 l 1,21,22
 167 834 167 834 167 501 c 1,17,-1
EndSplineSet
EndChar

StartChar: z
Encoding: 122 122 93
Width: 833
GlyphClass: 2
Flags: W
LayerCount: 2
Fore
SplineSet
668 167 m 1,0,-1
 668 0 l 1,1,2
 668 0 668 0 0 0 c 1,3,4
 0 0 0 0 0 334 c 1,5,-1
 167 334 l 1,6,-1
 167 167 l 1,7,-1
 668 167 l 1,0,-1
501 501 m 1,8,-1
 501 334 l 1,9,10
 501 334 501 334 167 334 c 1,11,-1
 167 501 l 1,12,13
 167 501 167 501 501 501 c 1,8,-1
501 501 m 1,14,-1
 501 668 l 1,15,16
 501 668 501 668 0 668 c 1,17,-1
 0 834 l 1,18,19
 0 834 0 834 668 834 c 1,20,21
 668 834 668 834 668 501 c 1,22,-1
 501 501 l 1,14,-1
EndSplineSet
EndChar

StartChar: braceleft
Encoding: 123 123 94
Width: 666
GlyphClass: 2
Flags: W
LayerCount: 2
Fore
SplineSet
334 0 m 1,0,-1
 334 167 l 1,1,-1
 501 167 l 1,2,-1
 501 0 l 1,3,-1
 334 0 l 1,0,-1
334 167 m 1,4,-1
 167 167 l 1,5,-1
 167 334 l 1,6,-1
 334 334 l 1,7,-1
 334 167 l 1,4,-1
167 334 m 1,8,-1
 0 334 l 1,9,-1
 0 501 l 1,10,-1
 167 501 l 1,11,-1
 167 334 l 1,8,-1
167 501 m 1,12,13
 167 501 167 501 167 834 c 1,14,-1
 334 834 l 1,15,-1
 334 501 l 1,16,-1
 167 501 l 1,12,13
334 834 m 1,17,-1
 334 1001 l 1,18,-1
 501 1001 l 1,19,-1
 501 834 l 1,20,-1
 334 834 l 1,17,-1
EndSplineSet
EndChar

StartChar: bar
Encoding: 124 124 95
Width: 333
GlyphClass: 2
Flags: W
LayerCount: 2
Fore
SplineSet
0 0 m 1,0,1
 0 0 0 0 0 1001 c 1,2,-1
 167 1001 l 1,3,-1
 167 0 l 1,4,-1
 0 0 l 1,0,1
EndSplineSet
EndChar

StartChar: braceright
Encoding: 125 125 96
Width: 666
GlyphClass: 2
Flags: W
LayerCount: 2
Fore
SplineSet
0 0 m 1,0,-1
 0 167 l 1,1,-1
 167 167 l 1,2,-1
 167 0 l 1,3,-1
 0 0 l 1,0,-1
167 167 m 1,4,-1
 167 334 l 1,5,-1
 334 334 l 1,6,-1
 334 167 l 1,7,-1
 167 167 l 1,4,-1
334 334 m 1,8,-1
 334 501 l 1,9,-1
 501 501 l 1,10,-1
 501 334 l 1,11,-1
 334 334 l 1,8,-1
334 501 m 1,12,-1
 167 501 l 1,13,14
 167 501 167 501 167 834 c 1,15,-1
 334 834 l 1,16,-1
 334 501 l 1,12,-1
167 834 m 1,17,-1
 0 834 l 1,18,-1
 0 1001 l 1,19,-1
 167 1001 l 1,20,-1
 167 834 l 1,17,-1
EndSplineSet
EndChar

StartChar: asciitilde
Encoding: 126 126 97
Width: 833
GlyphClass: 2
Flags: W
LayerCount: 2
Fore
SplineSet
334 334 m 1,0,-1
 334 501 l 1,1,-1
 501 501 l 1,2,-1
 501 334 l 1,3,-1
 334 334 l 1,0,-1
0 334 m 1,4,-1
 0 501 l 1,5,-1
 167 501 l 1,6,-1
 167 334 l 1,7,-1
 0 334 l 1,4,-1
501 501 m 1,8,-1
 501 668 l 1,9,-1
 668 668 l 1,10,-1
 668 501 l 1,11,-1
 501 501 l 1,8,-1
167 501 m 1,12,-1
 167 668 l 1,13,-1
 334 668 l 1,14,-1
 334 501 l 1,15,-1
 167 501 l 1,12,-1
EndSplineSet
EndChar

